<?xml version="1.0" encoding="UTF-8"?> <svg xmlns="http://www.w3.org/2000/svg" fill="#e67e22" width="800px" height="800px" viewBox="-4.5 -5 24 24" preserveAspectRatio="xMinYMin" class="jam jam-chevrons-left"><g id="SVGRepo_bgCarrier" stroke-width="0"></g><g id="SVGRepo_tracerCarrier" stroke-linecap="round" stroke-linejoin="round"></g><g id="SVGRepo_iconCarrier"><path d="M8.828 7.071l4.95 4.95a1 1 0 1 1-1.414 1.414L6.707 7.778a1 1 0 0 1 0-1.414L12.364.707a1 1 0 0 1 1.414 1.414l-4.95 4.95zm-6 0l4.95 4.95a1 1 0 1 1-1.414 1.414L.707 7.778a1 1 0 0 1 0-1.414L6.364.707a1 1 0 1 1 1.414 1.414l-4.95 4.95z"></path></g></svg> 