<?xml version="1.0" encoding="utf-8"?>
<!-- Generator: Adobe Illustrator 26.3.0, SVG Export Plug-In . SVG Version: 6.00 Build 0)  -->
<svg version="1.1" id="Layer_1" xmlns="http://www.w3.org/2000/svg" xmlns:xlink="http://www.w3.org/1999/xlink" x="0px" y="0px"
	 viewBox="0 0 4000 4000" style="enable-background:new 0 0 4000 4000;" xml:space="preserve">
<style type="text/css">
	.st0{fill:#054431;}
</style>
<g>
	<g>
		<g>
			<path class="st0" d="M1877.5,2314.4c-128.2,0-232.5-104.3-232.5-232.5v-297.1c0-128.2,104.3-232.5,232.5-232.5h297.1
				c128.2,0,232.5,104.3,232.5,232.5v297.1c0,128.2-104.3,232.5-232.5,232.5H1877.5z M1877.5,1635.8c-82.1,0-149,66.8-149,149v297.1
				c0,82.1,66.8,149,149,149h297.1c82.1,0,149-66.8,149-149v-297.1c0-82.1-66.8-149-149-149H1877.5z"/>
			<path class="st0" d="M1877.5,2304.4c-122.7,0-222.5-99.8-222.5-222.5v-297.1c0-122.7,99.8-222.5,222.5-222.5h297.1
				c122.7,0,222.5,99.8,222.5,222.5v297.1c0,122.7-99.8,222.5-222.5,222.5H1877.5z M1877.5,1625.9c-87.6,0-158.9,71.3-158.9,158.9
				v297.1c0,87.6,71.3,158.9,158.9,158.9h297.1c87.6,0,158.9-71.3,158.9-158.9v-297.1c0-87.6-71.3-158.9-158.9-158.9H1877.5z"/>
			<path class="st0" d="M1877.5,2299.4c-119.9,0-217.5-97.6-217.5-217.5v-297.1c0-119.9,97.6-217.5,217.5-217.5h297.1
				c119.9,0,217.5,97.6,217.5,217.5v297.1c0,119.9-97.6,217.5-217.5,217.5H1877.5z M1877.5,1620.9c-90.4,0-163.9,73.5-163.9,163.9
				v297.1c0,90.4,73.5,163.9,163.9,163.9h297.1c90.4,0,163.9-73.5,163.9-163.9v-297.1c0-90.4-73.5-163.9-163.9-163.9H1877.5z"/>
			<path class="st0" d="M2174.6,2289.5h-297.1c-114.4,0-207.6-93.1-207.6-207.6v-297.1c0-114.4,93.1-207.6,207.6-207.6h297.1
				c114.4,0,207.6,93.1,207.6,207.6v297.1C2382.1,2196.3,2289,2289.5,2174.6,2289.5z M1877.5,1610.9c-95.9,0-173.9,78-173.9,173.9
				v297.1c0,95.9,78,173.9,173.9,173.9h297.1c95.9,0,173.9-78,173.9-173.9v-297.1c0-95.9-78-173.9-173.9-173.9H1877.5z"/>
			<path class="st0" d="M2322.6,1869.2c-128.2,0-232.5-104.3-232.5-232.5v-297.1c0-128.2,104.3-232.5,232.5-232.5h297.1
				c128.2,0,232.5,104.3,232.5,232.5v297.1c0,128.2-104.3,232.5-232.5,232.5H2322.6z M2322.6,1190.7c-82.1,0-149,66.8-149,149v297.1
				c0,82.1,66.8,149,149,149h297.1c82.1,0,149-66.8,149-149v-297.1c0-82.1-66.8-149-149-149H2322.6z"/>
			<path class="st0" d="M2322.6,1859.2c-122.7,0-222.5-99.8-222.5-222.5v-297.1c0-122.7,99.8-222.5,222.5-222.5h297.1
				c122.7,0,222.5,99.8,222.5,222.5v297.1c0,122.7-99.8,222.5-222.5,222.5H2322.6z M2322.6,1180.7c-87.6,0-158.9,71.3-158.9,158.9
				v297.1c0,87.6,71.3,158.9,158.9,158.9h297.1c87.6,0,158.9-71.3,158.9-158.9v-297.1c0-87.6-71.3-158.9-158.9-158.9H2322.6z"/>
			<path class="st0" d="M2322.6,1854.3c-119.9,0-217.5-97.6-217.5-217.5v-297.1c0-119.9,97.6-217.5,217.5-217.5h297.1
				c119.9,0,217.5,97.6,217.5,217.5v297.1c0,119.9-97.6,217.5-217.5,217.5H2322.6z M2322.6,1175.8c-90.4,0-163.9,73.5-163.9,163.9
				v297.1c0,90.4,73.5,163.9,163.9,163.9h297.1c90.4,0,163.9-73.5,163.9-163.9v-297.1c0-90.4-73.5-163.9-163.9-163.9H2322.6z"/>
			<path class="st0" d="M2619.7,1844.3h-297.1c-114.4,0-207.6-93.1-207.6-207.6v-297.1c0-114.4,93.1-207.6,207.6-207.6h297.1
				c114.4,0,207.6,93.1,207.6,207.6v297.1C2827.3,1751.2,2734.2,1844.3,2619.7,1844.3z M2322.6,1165.8c-95.9,0-173.9,78-173.9,173.9
				v297.1c0,95.9,78,173.9,173.9,173.9h297.1c95.9,0,173.9-78,173.9-173.9v-297.1c0-95.9-78-173.9-173.9-173.9H2322.6z"/>
			<path class="st0" d="M1432.3,2759.5c-128.2,0-232.5-104.3-232.5-232.5V2230c0-128.2,104.3-232.5,232.5-232.5h297.1
				c128.2,0,232.5,104.3,232.5,232.5v297.1c0,128.2-104.3,232.5-232.5,232.5H1432.3z M1432.3,2081c-82.1,0-149,66.8-149,149v297.1
				c0,82.1,66.8,149,149,149h297.1c82.1,0,149-66.8,149-149V2230c0-82.1-66.8-149-149-149H1432.3z"/>
			<path class="st0" d="M1432.3,2749.6c-122.7,0-222.5-99.8-222.5-222.5V2230c0-122.7,99.8-222.5,222.5-222.5h297.1
				c122.7,0,222.5,99.8,222.5,222.5v297.1c0,122.7-99.8,222.5-222.5,222.5H1432.3z M1432.3,2071c-87.6,0-158.9,71.3-158.9,158.9
				v297.1c0,87.6,71.3,158.9,158.9,158.9h297.1c87.6,0,158.9-71.3,158.9-158.9V2230c0-87.6-71.3-158.9-158.9-158.9H1432.3z"/>
			<path class="st0" d="M1432.3,2744.6c-119.9,0-217.5-97.6-217.5-217.5V2230c0-119.9,97.6-217.5,217.5-217.5h297.1
				c119.9,0,217.5,97.6,217.5,217.5v297.1c0,119.9-97.6,217.5-217.5,217.5H1432.3z M1432.3,2066.1c-90.4,0-163.9,73.5-163.9,163.9
				v297.1c0,90.4,73.5,163.9,163.9,163.9h297.1c90.4,0,163.9-73.5,163.9-163.9V2230c0-90.4-73.5-163.9-163.9-163.9H1432.3z"/>
			<path class="st0" d="M1729.4,2734.6h-297.1c-114.4,0-207.6-93.1-207.6-207.6V2230c0-114.4,93.1-207.6,207.6-207.6h297.1
				c114.4,0,207.6,93.1,207.6,207.6v297.1C1937,2641.5,1843.8,2734.6,1729.4,2734.6z M1432.3,2056.1c-95.9,0-173.9,78-173.9,173.9
				v297.1c0,95.9,78,173.9,173.9,173.9h297.1c95.9,0,173.9-78,173.9-173.9V2230c0-95.9-78-173.9-173.9-173.9H1432.3z"/>
			<path class="st0" d="M2322.6,2759.5c-128.2,0-232.5-104.3-232.5-232.5V2230c0-128.2,104.3-232.5,232.5-232.5h297.1
				c128.2,0,232.5,104.3,232.5,232.5v297.1c0,128.2-104.3,232.5-232.5,232.5H2322.6z M2322.6,2081c-82.1,0-149,66.8-149,149v297.1
				c0,82.1,66.8,149,149,149h297.1c82.1,0,149-66.8,149-149V2230c0-82.1-66.8-149-149-149H2322.6z"/>
			<path class="st0" d="M2322.6,2749.6c-122.7,0-222.5-99.8-222.5-222.5V2230c0-122.7,99.8-222.5,222.5-222.5h297.1
				c122.7,0,222.5,99.8,222.5,222.5v297.1c0,122.7-99.8,222.5-222.5,222.5H2322.6z M2322.6,2071c-87.6,0-158.9,71.3-158.9,158.9
				v297.1c0,87.6,71.3,158.9,158.9,158.9h297.1c87.6,0,158.9-71.3,158.9-158.9V2230c0-87.6-71.3-158.9-158.9-158.9H2322.6z"/>
			<path class="st0" d="M2322.6,2744.6c-119.9,0-217.5-97.6-217.5-217.5V2230c0-119.9,97.6-217.5,217.5-217.5h297.1
				c119.9,0,217.5,97.6,217.5,217.5v297.1c0,119.9-97.6,217.5-217.5,217.5H2322.6z M2322.6,2066.1c-90.4,0-163.9,73.5-163.9,163.9
				v297.1c0,90.4,73.5,163.9,163.9,163.9h297.1c90.4,0,163.9-73.5,163.9-163.9V2230c0-90.4-73.5-163.9-163.9-163.9H2322.6z"/>
			<path class="st0" d="M2619.7,2734.6h-297.1c-114.4,0-207.6-93.1-207.6-207.6V2230c0-114.4,93.1-207.6,207.6-207.6h297.1
				c114.4,0,207.6,93.1,207.6,207.6v297.1C2827.3,2641.5,2734.2,2734.6,2619.7,2734.6z M2322.6,2056.1c-95.9,0-173.9,78-173.9,173.9
				v297.1c0,95.9,78,173.9,173.9,173.9h297.1c95.9,0,173.9-78,173.9-173.9V2230c0-95.9-78-173.9-173.9-173.9H2322.6z"/>
			<path class="st0" d="M1432.3,1869.2c-128.2,0-232.5-104.3-232.5-232.5v-297.1c0-128.2,104.3-232.5,232.5-232.5h297.1
				c128.2,0,232.5,104.3,232.5,232.5v297.1c0,128.2-104.3,232.5-232.5,232.5H1432.3z M1432.3,1190.7c-82.1,0-149,66.8-149,149v297.1
				c0,82.1,66.8,149,149,149h297.1c82.1,0,149-66.8,149-149v-297.1c0-82.1-66.8-149-149-149H1432.3z"/>
			<path class="st0" d="M1432.3,1859.2c-122.7,0-222.5-99.8-222.5-222.5v-297.1c0-122.7,99.8-222.5,222.5-222.5h297.1
				c122.7,0,222.5,99.8,222.5,222.5v297.1c0,122.7-99.8,222.5-222.5,222.5H1432.3z M1432.3,1180.7c-87.6,0-158.9,71.3-158.9,158.9
				v297.1c0,87.6,71.3,158.9,158.9,158.9h297.1c87.6,0,158.9-71.3,158.9-158.9v-297.1c0-87.6-71.3-158.9-158.9-158.9H1432.3z"/>
			<path class="st0" d="M1432.3,1854.3c-119.9,0-217.5-97.6-217.5-217.5v-297.1c0-119.9,97.6-217.5,217.5-217.5h297.1
				c119.9,0,217.5,97.6,217.5,217.5v297.1c0,119.9-97.6,217.5-217.5,217.5H1432.3z M1432.3,1175.8c-90.4,0-163.9,73.5-163.9,163.9
				v297.1c0,90.4,73.5,163.9,163.9,163.9h297.1c90.4,0,163.9-73.5,163.9-163.9v-297.1c0-90.4-73.5-163.9-163.9-163.9H1432.3z"/>
			<path class="st0" d="M1729.4,1844.3h-297.1c-114.4,0-207.6-93.1-207.6-207.6v-297.1c0-114.4,93.1-207.6,207.6-207.6h297.1
				c114.4,0,207.6,93.1,207.6,207.6v297.1C1937,1751.2,1843.8,1844.3,1729.4,1844.3z M1432.3,1165.8c-95.9,0-173.9,78-173.9,173.9
				v297.1c0,95.9,78,173.9,173.9,173.9h297.1c95.9,0,173.9-78,173.9-173.9v-297.1c0-95.9-78-173.9-173.9-173.9H1432.3z"/>
		</g>
		<path class="st0" d="M2026,3648.8c-84.7,0-164.1-32.8-223.6-92.3L1396,3150c-59.6-59.6-92.5-139-92.5-223.6s32.8-164,92.5-223.6
			l266.4-266.4L1536,2309.9l-266.4,266.4c-59.6,59.6-139.1,92.5-223.6,92.5c-84.6,0-164-32.8-223.6-92.5L416,2170
			c-59.5-59.5-92.3-138.9-92.3-223.6c0-84.7,32.8-164.1,92.3-223.6l406.4-406.4c59.6-59.6,139-92.5,223.6-92.5
			c84.5,0,164,32.8,223.6,92.5l266.4,266.4l126.5-126.5L1396,1189.9c-59.6-59.6-92.5-139-92.5-223.6c0-84.6,32.8-164,92.5-223.6
			l406.4-406.4c59.5-59.5,138.9-92.3,223.6-92.3c84.7,0,164.1,32.8,223.6,92.3L2656,742.7c59.6,59.6,92.5,139,92.5,223.6
			s-32.8,164-92.5,223.6l-266.4,266.4l126.5,126.5l266.4-266.4c59.6-59.6,139-92.5,223.6-92.5c84.5,0,164,32.8,223.6,92.5
			l406.4,406.4c59.5,59.5,92.3,138.9,92.3,223.6c0,84.7-32.8,164.1-92.3,223.6l-406.4,406.4c-59.6,59.6-139,92.5-223.6,92.5
			c-84.5,0-164-32.8-223.6-92.5L2516,2309.9l-126.5,126.5l266.4,266.4c59.6,59.6,92.5,139,92.5,223.6s-32.8,164-92.5,223.6
			l-406.4,406.4C2190.1,3616,2110.7,3648.8,2026,3648.8z M1875.8,2436.4l-373.1,373.1c-31,31-48.1,72.6-48.1,116.9
			s17.1,85.9,48.1,116.9l406.4,406.4c31,31,72.6,48.1,116.9,48.1c44.4,0,85.9-17.1,116.9-48.1l406.4-406.4
			c31-31,48.1-72.6,48.1-116.9c0-44.4-17.1-85.9-48.1-116.9l-373.1-373.1l339.8-339.8l373.1,373.1c31,31,72.6,48.1,116.9,48.1
			c44.4,0,85.9-17.1,116.9-48.1l406.4-406.4c31-31,48.1-72.6,48.1-116.9c0-44.4-17.1-85.9-48.1-116.9L3123,1423
			c-31-31-72.6-48.1-116.9-48.1c-44.4,0-85.9,17.1-116.9,48.1L2516,1796.1l-339.8-339.8l373.1-373.1c31-31,48.1-72.6,48.1-116.9
			c0-44.4-17.1-85.9-48.1-116.9L2143,443c-31-31-72.6-48.1-116.9-48.1c-44.4,0-85.9,17.1-116.9,48.1l-406.4,406.4
			c-31,31-48.1,72.6-48.1,116.9s17.1,85.9,48.1,116.9l373.1,373.1L1536,1796.1L1162.9,1423c-31-31-72.6-48.1-116.9-48.1
			c-44.4,0-85.9,17.1-116.9,48.1l-406.4,406.4c-31,31-48.1,72.6-48.1,116.9c0,44.4,17.1,85.9,48.1,116.9L929,2469.7
			c31,31,72.6,48.1,116.9,48.1c44.4,0,85.9-17.1,116.9-48.1l373.1-373.1L1875.8,2436.4z"/>
		<path class="st0" d="M2026,3638.8c-82,0-158.9-31.8-216.6-89.4L1403.1,3143c-57.8-57.8-89.6-134.7-89.6-216.6
			s31.8-158.8,89.6-216.5l273.5-273.5L1536,2295.8l-273.5,273.5c-57.8,57.8-134.7,89.6-216.6,89.6c-81.9,0-158.8-31.8-216.6-89.6
			L423,2162.9c-57.7-57.6-89.4-134.5-89.4-216.5s31.8-158.9,89.4-216.6l406.4-406.4c57.8-57.8,134.7-89.6,216.6-89.6
			c81.9,0,158.8,31.8,216.5,89.6l273.5,273.5l140.5-140.5l-273.5-273.5c-57.8-57.8-89.6-134.7-89.6-216.5
			c0-81.9,31.8-158.8,89.6-216.6l406.4-406.4C1867.1,285.7,1944,254,2026,254c82,0,158.9,31.8,216.6,89.4L2649,749.8
			c57.8,57.8,89.6,134.7,89.6,216.6c0,81.9-31.8,158.8-89.6,216.5l-273.5,273.5l140.5,140.5l273.5-273.5
			c57.8-57.8,134.7-89.6,216.5-89.6s158.8,31.8,216.5,89.6l406.4,406.4c57.7,57.6,89.4,134.5,89.4,216.6c0,82-31.8,158.9-89.4,216.6
			l-406.4,406.4c-57.8,57.8-134.7,89.6-216.5,89.6s-158.8-31.8-216.5-89.6L2516,2295.8l-140.6,140.5l273.5,273.5
			c57.8,57.8,89.6,134.7,89.6,216.5s-31.8,158.8-89.6,216.5l-406.4,406.4C2184.9,3607,2108,3638.8,2026,3638.8z M1861.7,2436.4
			l-366,366c-32.9,32.9-51.1,77-51.1,124c0,47,18.1,91.1,51.1,124l406.4,406.4c32.9,32.9,77,51.1,124,51.1c47,0,91.1-18.1,124-51.1
			l406.4-406.4c32.9-32.9,51.1-77,51.1-124c0-47-18.1-91.1-51.1-124l-366-366l325.7-325.7l366,366c32.9,32.9,77,51.1,124,51.1
			c47,0,91.1-18.1,124-51.1l406.4-406.4c32.9-32.9,51.1-77,51.1-124c0-47-18.1-91.1-51.1-124L3130.1,1416
			c-32.9-32.9-77-51.1-124-51.1c-47,0-91.1,18.1-124,51.1l-366,366l-325.7-325.7l366-366c32.9-32.9,51.1-77,51.1-124
			c0-47-18.1-91.1-51.1-124L2150,435.9c-32.9-32.9-77-51.1-124-51.1c-47,0-91.1,18.1-124,51.1l-406.4,406.4
			c-32.9,32.9-51.1,77-51.1,124s18.1,91.1,51.1,124l366,366L1536,1782l-366-366c-32.9-32.9-77-51.1-124-51.1
			c-47,0-91.1,18.1-124,51.1l-406.4,406.4c-32.9,32.9-51.1,77-51.1,124c0,47,18.1,91.1,51.1,124L922,2476.8
			c32.9,32.9,77,51.1,124,51.1c47,0,91.1-18.1,124-51.1l366-366L1861.7,2436.4z"/>
		<path class="st0" d="M2026,3633.8c-80.7,0-156.3-31.2-213-88l-406.4-406.4c-56.8-56.8-88.1-132.5-88.1-213s31.3-156.2,88.1-213
			l277-277L1536,2288.8l-277,277c-56.8,56.8-132.5,88.1-213,88.1s-156.2-31.3-213-88.1l-406.4-406.4c-56.7-56.7-88-132.3-88-213
			c0-80.7,31.2-156.3,88-213l406.4-406.4c56.8-56.8,132.5-88.1,213-88.1s156.2,31.3,213,88.1l277,277l147.6-147.6l-277-277
			c-56.8-56.8-88.1-132.5-88.1-213s31.3-156.2,88.1-213L1813,346.9c56.7-56.7,132.3-88,213-88c80.7,0,156.3,31.2,213,88l406.4,406.4
			c56.8,56.8,88.1,132.5,88.1,213s-31.3,156.2-88.1,213l-277,277l147.6,147.6l277-277c56.8-56.8,132.5-88.1,213-88.1
			s156.2,31.3,213,88.1l406.4,406.4c56.7,56.7,88,132.3,88,213c0,80.7-31.2,156.3-88,213l-406.4,406.4
			c-56.8,56.8-132.5,88.1-213,88.1s-156.2-31.3-213-88.1l-277-277l-147.6,147.6l277,277c56.8,56.8,88.1,132.5,88.1,213
			s-31.3,156.2-88.1,213L2239,3545.8C2182.4,3602.6,2106.7,3633.8,2026,3633.8z M1854.6,2436.4l-362.5,362.5
			c-33.9,33.9-52.5,79.2-52.5,127.5c0,48.4,18.7,93.6,52.5,127.5l406.4,406.4c33.9,33.9,79.2,52.5,127.5,52.5
			c48.4,0,93.6-18.7,127.5-52.5l406.4-406.4c33.9-33.9,52.5-79.2,52.5-127.5c0-48.4-18.7-93.6-52.5-127.5l-362.5-362.5l318.6-318.6
			l362.5,362.5c33.9,33.9,79.2,52.5,127.5,52.5s93.6-18.7,127.5-52.5l406.4-406.4c33.9-33.9,52.5-79.2,52.5-127.5
			c0-48.4-18.7-93.6-52.5-127.5l-406.4-406.4c-33.9-33.9-79.2-52.5-127.5-52.5s-93.6,18.7-127.5,52.5L2516,1775l-318.6-318.6
			l362.5-362.5c33.9-33.9,52.5-79.2,52.5-127.5c0-48.4-18.7-93.6-52.5-127.5l-406.4-406.4c-33.9-33.9-79.2-52.5-127.5-52.5
			c-48.4,0-93.6,18.7-127.5,52.5l-406.4,406.4c-33.9,33.9-52.5,79.2-52.5,127.5c0,48.4,18.7,93.6,52.5,127.5l362.5,362.5L1536,1775
			l-362.5-362.5c-33.9-33.9-79.2-52.5-127.5-52.5c-48.4,0-93.6,18.7-127.5,52.5l-406.4,406.4c-33.9,33.9-52.5,79.2-52.5,127.5
			s18.7,93.6,52.5,127.5l406.4,406.4c33.9,33.9,79.2,52.5,127.5,52.5c48.4,0,93.6-18.7,127.5-52.5l362.5-362.5L1854.6,2436.4z"/>
		<path class="st0" d="M2026,3623.8c-78,0-151.2-30.2-206-85l-406.4-406.4c-113.6-113.6-113.6-298.4,0-412l284-284L1536,2274.7
			l-284,284c-113.6,113.6-298.4,113.6-412,0l-406.4-406.4c-54.8-54.8-85-128-85-206s30.2-151.2,85-206L840,1334
			c113.6-113.6,298.4-113.6,412,0l284,284l161.7-161.7l-284-284c-113.6-113.6-113.6-298.4,0-412L1820,353.9c54.8-54.8,128-85,206-85
			s151.2,30.2,206,85l406.4,406.4c113.6,113.6,113.6,298.4,0,412l-284,284L2516,1618l284-284c113.6-113.6,298.4-113.6,412,0
			l406.4,406.4c54.8,54.8,85,128,85,206s-30.2,151.2-85,206L3212,2558.8c-113.6,113.6-298.4,113.6-412,0l-284-284l-161.7,161.7
			l284,284c113.6,113.6,113.6,298.4,0,412L2232,3538.8C2177.2,3593.6,2104,3623.8,2026,3623.8z M1536,2131.9l304.5,304.5
			l-355.5,355.5c-35.7,35.7-55.4,83.6-55.4,134.6s19.7,98.8,55.4,134.6l406.4,406.4c35.7,35.7,83.6,55.4,134.6,55.4
			s98.8-19.7,134.6-55.4L2567,3061c35.7-35.7,55.4-83.6,55.4-134.6s-19.7-98.8-55.4-134.6l-355.5-355.5l304.5-304.5l355.5,355.5
			c35.7,35.7,83.6,55.4,134.6,55.4s98.8-19.7,134.6-55.4l406.4-406.4c35.7-35.7,55.4-83.6,55.4-134.6s-19.7-98.8-55.4-134.6
			l-406.4-406.4c-35.7-35.7-83.6-55.4-134.6-55.4s-98.8,19.7-134.6,55.4L2516,1760.9l-304.5-304.5l355.5-355.5
			c35.7-35.7,55.4-83.6,55.4-134.6s-19.7-98.8-55.4-134.6l-406.4-406.4c-35.7-35.7-83.6-55.4-134.6-55.4s-98.8,19.7-134.6,55.4
			l-406.4,406.4c-35.7,35.7-55.4,83.6-55.4,134.6s19.7,98.8,55.4,134.6l355.5,355.5L1536,1760.9l-355.5-355.5
			c-35.7-35.7-83.6-55.4-134.6-55.4c-51,0-98.8,19.7-134.6,55.4L505,1811.8c-35.7,35.7-55.4,83.6-55.4,134.6s19.7,98.8,55.4,134.6
			l406.4,406.4c35.7,35.7,83.6,55.4,134.6,55.4c51,0,98.8-19.7,134.6-55.4L1536,2131.9z"/>
	</g>
</g>
</svg>
