<?xml version="1.0" encoding="UTF-8"?>
<svg id="Layer_1" data-name="Layer 1" xmlns="http://www.w3.org/2000/svg" viewBox="0 0 4000 4000">
  <defs>
    <style>
      .cls-1 {
        fill: #174c50;
      }
    </style>
  </defs>
  <g>
    <path class="cls-1" d="M1869.0325,2334.4133c-105.7604,0-191.803-86.0405-191.803-191.8009v-261.9681c0-105.7604,86.0426-191.803,191.803-191.803h261.9359c105.7604,0,191.8051,86.0426,191.8051,191.803v261.9681c0,105.7604-86.0448,191.8009-191.8051,191.8009h-261.9359ZM1869.0325,1736.1072c-79.6989,0-144.5371,64.8382-144.5371,144.5371v261.9681c0,79.6968,64.8382,144.535,144.5371,144.535h261.9359c79.6989,0,144.5393-64.8382,144.5393-144.535v-261.9681c0-79.6989-64.8404-144.5371-144.5393-144.5371h-261.9359Z"/>
    <path class="cls-1" d="M2130.9703,2325.6264h-261.9385c-100.9017,0-183.0148-82.1131-183.0148-183.0148v-261.9675c0-100.9017,82.1131-183.0148,183.0148-183.0148h261.9385c100.9017,0,183.0148,82.1131,183.0148,183.0148v261.9675c0,100.9017-82.1131,183.0148-183.0148,183.0148ZM1869.0318,1727.32c-84.5487,0-153.3242,68.7755-153.3242,153.3242v261.9675c0,84.5487,68.7755,153.3242,153.3242,153.3242h261.9385c84.5487,0,153.3242-68.7755,153.3242-153.3242v-261.9675c0-84.5487-68.7755-153.3242-153.3242-153.3242h-261.9385Z"/>
    <path class="cls-1" d="M2261.5331,1941.8828c-105.7604,0-191.8009-86.0426-191.8009-191.803v-261.938c0-105.7604,86.0405-191.8009,191.8009-191.8009h261.9659c105.7604,0,191.8051,86.0405,191.8051,191.8009v261.938c0,105.7604-86.0448,191.803-191.8051,191.803h-261.9659ZM2261.5331,1343.6046c-79.6989,0-144.535,64.8382-144.535,144.5371v261.938c0,79.6989,64.8361,144.5371,144.535,144.5371h261.9659c79.6989,0,144.5393-64.8382,144.5393-144.5371v-261.938c0-79.6989-64.8404-144.5371-144.5393-144.5371h-261.9659Z"/>
    <path class="cls-1" d="M2523.501,1933.0956h-261.9675c-100.9017,0-183.0148-82.1131-183.0148-183.0148v-261.9385c0-100.9017,82.1131-183.0148,183.0148-183.0148h261.9675c100.9017,0,183.0148,82.1131,183.0148,183.0148v261.9385c0,100.9017-82.1131,183.0148-183.0148,183.0148ZM2261.5336,1334.8182c-84.5487,0-153.3242,68.7755-153.3242,153.3242v261.9385c0,84.5487,68.7755,153.3242,153.3242,153.3242h261.9675c84.5487,0,153.3242-68.7755,153.3242-153.3242v-261.9385c0-84.5487-68.7755-153.3242-153.3242-153.3242h-261.9675Z"/>
    <path class="cls-1" d="M1476.502,2726.916c-105.7604,0-191.803-86.0426-191.803-191.803v-261.938c0-105.7604,86.0426-191.803,191.803-191.803h261.9659c105.7604,0,191.803,86.0426,191.803,191.803v261.938c0,105.7604-86.0426,191.803-191.803,191.803h-261.9659ZM1476.502,2128.6378c-79.6989,0-144.5371,64.8382-144.5371,144.5371v261.938c0,79.6989,64.8382,144.5371,144.5371,144.5371h261.9659c79.6989,0,144.5371-64.8382,144.5371-144.5371v-261.938c0-79.6989-64.8382-144.5371-144.5371-144.5371h-261.9659Z"/>
    <path class="cls-1" d="M1738.4685,2718.1282h-261.9675c-100.9017,0-183.0148-82.1131-183.0148-183.0148v-261.9385c0-100.9017,82.1131-183.0148,183.0148-183.0148h261.9675c100.9017,0,183.0148,82.1131,183.0148,183.0148v261.9385c0,100.9017-82.1131,183.0148-183.0148,183.0148ZM1476.501,2119.8507c-84.5487,0-153.3242,68.7755-153.3242,153.3242v261.9385c0,84.5487,68.7755,153.3242,153.3242,153.3242h261.9675c84.5487,0,153.3242-68.7755,153.3242-153.3242v-261.9385c0-84.5487-68.7755-153.3242-153.3242-153.3242h-261.9675Z"/>
    <path class="cls-1" d="M2261.5331,2726.916c-105.7604,0-191.8009-86.0426-191.8009-191.803v-261.938c0-105.7604,86.0405-191.803,191.8009-191.803h261.9659c105.7604,0,191.8051,86.0426,191.8051,191.803v261.938c0,105.7604-86.0448,191.803-191.8051,191.803h-261.9659ZM2261.5331,2128.6378c-79.6989,0-144.535,64.8382-144.535,144.5371v261.938c0,79.6989,64.8361,144.5371,144.535,144.5371h261.9659c79.6989,0,144.5393-64.8382,144.5393-144.5371v-261.938c0-79.6989-64.8404-144.5371-144.5393-144.5371h-261.9659Z"/>
    <path class="cls-1" d="M2523.501,2718.1282h-261.9675c-100.9017,0-183.0148-82.1131-183.0148-183.0148v-261.9385c0-100.9017,82.1131-183.0148,183.0148-183.0148h261.9675c100.9017,0,183.0148,82.1131,183.0148,183.0148v261.9385c0,100.9017-82.1131,183.0148-183.0148,183.0148ZM2261.5336,2119.8507c-84.5487,0-153.3242,68.7755-153.3242,153.3242v261.9385c0,84.5487,68.7755,153.3242,153.3242,153.3242h261.9675c84.5487,0,153.3242-68.7755,153.3242-153.3242v-261.9385c0-84.5487-68.7755-153.3242-153.3242-153.3242h-261.9675Z"/>
    <path class="cls-1" d="M1476.502,1941.8828c-105.7604,0-191.803-86.0426-191.803-191.803v-261.938c0-105.7604,86.0426-191.8009,191.803-191.8009h261.9659c105.7604,0,191.803,86.0405,191.803,191.8009v261.938c0,105.7604-86.0426,191.803-191.803,191.803h-261.9659ZM1476.502,1343.6046c-79.6989,0-144.5371,64.8382-144.5371,144.5371v261.938c0,79.6989,64.8382,144.5371,144.5371,144.5371h261.9659c79.6989,0,144.5371-64.8382,144.5371-144.5371v-261.938c0-79.6989-64.8382-144.5371-144.5371-144.5371h-261.9659Z"/>
    <path class="cls-1" d="M1738.4685,1933.0956h-261.9675c-100.9017,0-183.0148-82.1131-183.0148-183.0148v-261.9385c0-100.9017,82.1131-183.0148,183.0148-183.0148h261.9675c100.9017,0,183.0148,82.1131,183.0148,183.0148v261.9385c0,100.9017-82.1131,183.0148-183.0148,183.0148ZM1476.501,1334.8182c-84.5487,0-153.3242,68.7755-153.3242,153.3242v261.9385c0,84.5487,68.7755,153.3242,153.3242,153.3242h261.9675c84.5487,0,153.3242-68.7755,153.3242-153.3242v-261.9385c0-84.5487-68.7755-153.3242-153.3242-153.3242h-261.9675Z"/>
  </g>
  <path class="cls-1" d="M2000.0005,3510.9924c-71.1455,0-137.8545-27.546-187.8384-77.5579l-358.3426-358.3448c-50.0955-50.0955-77.6866-116.8045-77.6866-187.8363s27.5911-137.7407,77.6866-187.8341l244.2412-244.2434-130.1399-130.1399-244.2434,244.2412c-50.0955,50.0955-116.8045,77.6866-187.8363,77.6866s-137.7407-27.5911-187.8363-77.6866l-358.3448-358.3469c-50.0119-49.9797-77.5557-116.6887-77.5557-187.8341s27.5439-137.8566,77.5579-187.8384l358.3426-358.3448c50.0955-50.0955,116.8045-77.6866,187.8363-77.6866s137.7407,27.5911,187.8363,77.6866l244.2434,244.2412,130.1399-130.1377-244.2412-244.2455c-50.0955-50.0934-77.6866-116.8024-77.6866-187.8341s27.5911-137.7407,77.6866-187.8363l358.3448-358.3469c49.9797-50.0097,116.6887-77.5536,187.8363-77.5536s137.8545,27.5439,187.8406,77.5536l358.3426,358.3469c50.0977,50.0955,77.6866,116.8045,77.6866,187.8363s-27.5889,137.7407-77.6866,187.8341l-244.2455,244.2455,130.1441,130.1377,244.2412-244.2412c50.0934-50.0955,116.8045-77.6866,187.8363-77.6866s137.7429,27.5911,187.8363,77.6866l358.3469,358.3469c50.0119,49.9775,77.5536,116.6865,77.5536,187.8363s-27.5417,137.8566-77.5536,187.8363l-358.3469,358.3448c-50.0934,50.0955-116.8045,77.6866-187.8363,77.6866s-137.7429-27.5911-187.8363-77.6866l-244.2412-244.2412-130.1441,130.1399,244.2455,244.2434c50.0977,50.0934,77.6866,116.8024,77.6866,187.8341s-27.5889,137.7407-77.6866,187.8363l-358.3469,358.3448c-49.9818,50.0119-116.6887,77.5579-187.8363,77.5579ZM1848.8686,2455.176l-319.6474,319.6452c-29.863,29.8651-46.3112,69.7939-46.3112,112.4323s16.4482,82.5694,46.3112,112.4345l358.3469,358.3469c29.8651,29.863,69.7939,46.309,112.4323,46.309s82.5694-16.4461,112.4323-46.309l358.3469-358.3469c29.8672-29.8651,46.3133-69.7939,46.3133-112.4345s-16.4461-82.5672-46.3133-112.4323l-319.6452-319.6452,280.9478-280.9499,319.6452,319.6495c29.863,29.863,69.7918,46.309,112.4323,46.309s82.5694-16.4461,112.4323-46.309l358.3469-358.3469c29.8672-29.8651,46.3133-69.7939,46.3133-112.4323s-16.4461-82.5694-46.3133-112.4345l-358.3469-358.3469c-29.863-29.863-69.7918-46.309-112.4323-46.309s-82.5694,16.4461-112.4323,46.309l-319.6452,319.6495-280.9478-280.9478,319.6452-319.6474c29.8672-29.8651,46.3133-69.7939,46.3133-112.4323s-16.4461-82.5694-46.3133-112.4345l-358.3469-358.3469c-29.863-29.863-69.7918-46.309-112.4323-46.309s-82.5694,16.4461-112.4323,46.309l-358.3469,358.3469c-29.863,29.8651-46.3112,69.7939-46.3112,112.4345s16.4482,82.5672,46.3112,112.4323l319.6474,319.6474-280.9478,280.9478-319.6452-319.6495c-29.863-29.863-69.7939-46.309-112.4345-46.309s-82.5694,16.4461-112.4323,46.309l-358.3469,358.3469c-29.8651,29.8651-46.3112,69.7961-46.3112,112.4345s16.4461,82.5672,46.3112,112.4323l358.3469,358.3469c29.863,29.863,69.7918,46.309,112.4323,46.309s82.5715-16.4461,112.4345-46.309l319.6452-319.6495,280.9478,280.9499Z"/>
  <path class="cls-1" d="M2000.001,3502.204c-68.7755,0-133.2888-26.6172-181.6231-74.9804l-358.346-358.346c-100.1478-100.1478-100.1478-263.0983,0-363.2461l250.4566-250.4566-142.5671-142.5671-250.4566,250.4566c-100.1478,100.1478-263.0983,100.1478-363.2461,0l-358.346-358.346c-48.3632-48.3342-74.9804-112.8475-74.9804-181.6231s26.6172-133.2888,74.9804-181.6231l358.346-358.346c100.1478-100.1478,263.0983-100.1478,363.2461,0l250.4566,250.4566,142.5671-142.5671-250.4566-250.4566c-100.1478-100.1478-100.1478-263.0983,0-363.2461l358.346-358.346c48.3342-48.3632,112.8475-74.9804,181.6231-74.9804s133.2888,26.6172,181.6231,74.9804l358.346,358.346c100.1478,100.1478,100.1478,263.0983,0,363.2461l-250.4566,250.4566,142.5671,142.5671,250.4566-250.4566c100.1478-100.1478,263.0983-100.1478,363.2461,0l358.346,358.346c48.3632,48.3342,74.9804,112.8475,74.9804,181.6231s-26.6172,133.2888-74.9804,181.6231l-358.346,358.346c-100.1478,100.1478-263.0983,100.1478-363.2461,0l-250.4566-250.4566-142.5671,142.5671,250.4566,250.4566c100.1478,100.1478,100.1478,263.0983,0,363.2461l-358.346,358.346c-48.3342,48.3632-112.8475,74.9804-181.6231,74.9804ZM1567.9214,2186.6546l268.5203,268.5203-313.4331,313.4331c-31.5173,31.5173-48.8851,73.6756-48.8851,118.6465s17.3678,87.1292,48.8851,118.6465l358.346,358.346c31.5173,31.5173,73.6756,48.8851,118.6465,48.8851s87.1292-17.3678,118.6465-48.8851l358.346-358.346c31.5173-31.5173,48.8851-73.6756,48.8851-118.6465s-17.3678-87.1292-48.8851-118.6465l-313.4331-313.4331,268.5203-268.5203,313.4331,313.4331c31.5173,31.5173,73.6756,48.8851,118.6465,48.8851s87.1292-17.3678,118.6465-48.8851l358.346-358.346c31.5173-31.5173,48.8851-73.6756,48.8851-118.6465s-17.3678-87.1292-48.8851-118.6465l-358.346-358.346c-31.5173-31.5173-73.6756-48.8851-118.6465-48.8851s-87.1292,17.3678-118.6465,48.8851l-313.4331,313.4331-268.5203-268.5203,313.4331-313.4331c31.5173-31.5173,48.8851-73.6756,48.8851-118.6465s-17.3678-87.1292-48.8851-118.6465l-358.346-358.346c-31.5173-31.5173-73.6756-48.8851-118.6465-48.8851s-87.1292,17.3678-118.6465,48.8851l-358.346,358.346c-31.5173,31.5173-48.8851,73.6756-48.8851,118.6465s17.3678,87.1292,48.8851,118.6465l313.4331,313.4331-268.5203,268.5203-313.4331-313.4331c-31.5173-31.5173-73.6756-48.8851-118.6465-48.8851s-87.1292,17.3678-118.6465,48.8851l-358.346,358.346c-31.5173,31.5173-48.8851,73.6756-48.8851,118.6465s17.3678,87.1292,48.8851,118.6465l358.346,358.346c31.5173,31.5173,73.6756,48.8851,118.6465,48.8851s87.1292-17.3678,118.6465-48.8851l313.4331-313.4331Z"/>
</svg>